<svg id="Calque_1" data-name="Calque 1" xmlns="http://www.w3.org/2000/svg" viewBox="0 0 681.5 158.47"><defs><style>.cls-1{fill:#d54c39;}.cls-2{fill:#fff;}</style></defs><title>LOGO</title><path class="cls-1" d="M563.31,340.55c.79.07,2.16,0,3,0,3.31,0,6.62-.07,9.93-.07,1.8,0,2.23,1.94-.36,1.94-2.88,0-6.48.14-9.36.14-3.38,0-6.33.29-9.72-.21-.58-.07-1.22.14-1.58-.36a1.25,1.25,0,0,1-.29-.65c0-.79,1.22-1.3,1.87-1.3.36,0,.79.08,1.15.08,2.81,0,5.26-5.05,6-7.28,0-.07.07-.21.07-.28,0-.36-.21-.44-.5-.51-2.16-.57-4-.94-5.47-2.88a8,8,0,0,1-1.44-4.9c0-1,.29-4.89.79-5.54a1.48,1.48,0,0,1,1.22-.5c.51,0,1.16.28,1.16.93,0,1.59-.44,3.17-.44,4.75,0,2.88,1.08,5.41,4.11,5.84.72.07,1.22.43,1.94-.72s2.09-4.4,4.61-10.44a67.77,67.77,0,0,1,4.25-8.21c1.8-3,4.68-6.7,8.57-6.7,2.66,0,4.1,1.66,4.1,4.25a18.22,18.22,0,0,1-1.87,7A37.43,37.43,0,0,1,575,328.81a16.57,16.57,0,0,1-7.28,3.39c-.36.07-.43.28-.72,1A22.75,22.75,0,0,1,563.1,340C563,340.19,562.88,340.55,563.31,340.55Zm5.26-11.31c-.07.22-.22.65.21.51,6.77-2.31,15.34-14.69,15.34-21.6,0-.94-.14-2.31-1.37-2.31C578,305.84,570.15,325.14,568.57,329.24Z" transform="translate(-79.94 -215.13)"/><path class="cls-1" d="M585.05,341.2c-1.94,0-3.67-1.08-3.67-3.24,0-1.3,1.23-5.76,2.81-5.76a.88.88,0,0,1,.94.79c0,.79-1.37,2.73-1.37,4.82,0,.43,0,1.37,1.51,1.37a31.06,31.06,0,0,0,15.19-4.82.72.72,0,1,1,.87,1.15C597.51,339,589.52,341.2,585.05,341.2Zm3.39-15.34c-.5.86-1.08,2.81-2.31,2.81a1,1,0,0,1-.93-.87c0-1.44,2.09-5,3.67-5a.89.89,0,0,1,.94.79A21.26,21.26,0,0,1,588.44,325.86Z" transform="translate(-79.94 -215.13)"/><path class="cls-1" d="M611,338.32a12.88,12.88,0,0,1-1.3,1.36,1.7,1.7,0,0,1-1,.36c-.65,0-1.22-.36-1.22-1a6.9,6.9,0,0,1,.29-1.37c.07-.36,1-5,.21-5-1.44,0-6.77,5.33-7.27,5.83-.65.65-2.3,3-3.53,3-.58,0-1.37-.36-1.37-1.08a3.21,3.21,0,0,1,.58-1.36l2.16-4.25c.43-.87,1.08-2.74,2.23-2.74.87,0,1.08.43,1.08,1.23,0,.36-.21.71-.21,1v.08c.35,0,3.81-3.61,6.48-3.61,2.08,0,2.66,1.52,2.66,3.24,0,.22-.14,1.3.07,1.3s3.24-3,6-3a2.7,2.7,0,0,1,3,2.88c0,.65-.14,1.37-.14,2a1.71,1.71,0,0,0,1.87,1.88c3.6,0,9.22-2.74,12.1-4.61,1.15-.87,2.52.5,1.08,1.58-3.24,2.38-8.93,5.11-13.18,5.11-2.31,0-4.25-1.36-4.25-3.81,0-.72.07-1.44.07-2.09a1.22,1.22,0,0,0-.29-1C615.44,333.92,612.06,337.16,611,338.32Z" transform="translate(-79.94 -215.13)"/><path class="cls-1" d="M654,336c-2.45,2.09-7,3.67-11.74,3.67-.86,0-1.72-.21-2.59-.21-1.29,0-2.45,1.8-5,1.8a2.78,2.78,0,0,1-3-2.59c0-1.66,1.94-6,3.89-6a1.7,1.7,0,0,1,.57.14h.15a.4.4,0,0,0,.36-.21,5.46,5.46,0,0,1,3.81-1.8,2.61,2.61,0,0,1,2.74,2.59c0,1.87-1.94,3.67-1.94,4.1s1,.29,1.29.29A20.51,20.51,0,0,0,653,334.57C654.39,333.64,655.11,335.15,654,336Zm-17,2.31c0-.22-.29-.51-.43-.65-.65-.65-1.08-2.38-1.23-2.45-.36,0-1.37,2.88-1.37,3.31,0,.58.29,1,.8,1S637,338.82,637,338.32ZM638,335c0,.51.44,1.95.94,1.95.14,0,.43-.43.5-.51.65-.79,1.66-1.94,1.66-3a1,1,0,0,0-.36-.79h-.22A3.16,3.16,0,0,0,638,335Z" transform="translate(-79.94 -215.13)"/><path class="cls-1" d="M671.89,335.36c1.22-.93,2.16.15,1.22,1.16-1.08,1.22-7.2,5.61-11.3,8.28-.36.21-.43.57-.58.93a92.51,92.51,0,0,1-9.94,21.68c-1.65,2.66-4,6.19-7.56,6.19-2.88,0-4.39-2.09-4.39-4.83,0-9.72,12.31-19.08,19.95-24.84.5-.36,1.65-5.76,1.65-6.69,0-.15,0-.58-.21-.58-1.66,0-6.7,4.32-9.22,4.32a1.82,1.82,0,0,1-1.94-1.8c0-2.88,5.32-6.91,8.13-6.91s1.73,2.66,2.95,2.66c1.73,0,2.6.72,2.6,2.52,0,1.15-.58,3.31-.58,4a.15.15,0,0,0,.14.15C663,341.63,671.89,335.36,671.89,335.36Zm-14.76,14.69c.07-.29.72-1.8.72-1.94a.28.28,0,0,0-.08-.15.37.37,0,0,0-.28.15C651.58,352.65,642,361,642,369c0,1,.51,2.59,1.73,2.59C648.05,371.58,656,353.08,657.13,350.05Zm.64-14.18a9.25,9.25,0,0,0,.15-1.37c0-.65-1.08-.29-1.44-.07-.87.5-4.25,3-4.25,4.1a.19.19,0,0,0,.22.22A50.69,50.69,0,0,0,657.77,335.87Z" transform="translate(-79.94 -215.13)"/><path class="cls-1" d="M690.17,334.64c.73-.57,1.45.51.73,1.23-3.32,3.24-10.09,5.83-15.27,5.83-2.23,0-4.75-.94-4.75-3.53a8.13,8.13,0,0,1,1.94-4.61,7.61,7.61,0,0,1,5.62-2.88c1.22,0,2.88.51,2.88,1.95,0,2.37-3.75,4.25-5.76,4.25-.51,0-1-.22-1.51-.22-.72,0-.8.86-.8,1.44,0,1.51,1.16,1.73,2.38,1.73C681.39,339.83,687.08,337,690.17,334.64ZM675,334.28c-.14.15-.43.44-.43.65,0,1.08,1.94.36,2.66.07s2.31-1.36,2.31-2.3c0-.5-.72-.58-1-.58A5.8,5.8,0,0,0,675,334.28Z" transform="translate(-79.94 -215.13)"/><path class="cls-1" d="M708.25,334.36a.82.82,0,1,1,.64,1.51c-2.59,1.65-10.22,3.45-12.67,3.89-1.22.21-1.08,2.8-4,2.8a3.52,3.52,0,0,1-3.53-3.45,1.22,1.22,0,0,1,1.37-1.23c.65,0,1.44.22,2.23.22.29,0,.65.07.79-.29a16.07,16.07,0,0,1-.14-2.59c.07-.94-3.1,2-4.25,2-.36,0-.79-.29-.79-.65a.77.77,0,0,1,.36-.79,45.16,45.16,0,0,0,5-4.11c.79-.79,1.22-1.58,2.59-1.58.43,0,1.15.14,1.15.72s-.93.86-1.22,1.22c-.87,1.23-.22,4,0,5,.07.29.21.65.5.58A44.31,44.31,0,0,0,708.25,334.36ZM692,340.84a.68.68,0,0,0,.65-.65c0-.07-.07-.36-.29-.36s-1.58-.22-1.58.21S691.61,340.84,692,340.84Z" transform="translate(-79.94 -215.13)"/><path class="cls-2" d="M117.8,283.23c0,13.5-4,24.9-19.5,24.9-11.1,0-16-4.8-17.85-15.15-.75-3.9-.45-8.7-.45-12.75,0-2.7,1.2-3.75,3.9-3.75h4.35c2.85,0,3,1.8,3.15,4,.15,4.35-.45,15.75,6.45,15.75,6,0,7.05-7.2,7.05-13.5,0-4-.45-8.1-2.55-11.7-1.8-3-4.35-4.95-7-7.05-9.9-7.35-14.1-14.4-14.1-27s4.35-21.9,18.45-21.9c8.55,0,15.15,4.2,16.2,13.2.15,1.8.6,3.75.6,5.55,0,2.85-.6,5.25-3.9,5.25H109.4c-7.8,0-.3-11.7-9.6-11.7-6.15,0-6.15,5.1-6.15,9.9C93.65,258.78,117.8,249,117.8,283.23Z" transform="translate(-79.94 -215.13)"/><path class="cls-2" d="M144.35,306.63a5,5,0,0,1-4.8-4.95v-67.8c0-4.65-3.75-4.95-7.2-4.95a4.74,4.74,0,0,1-4.8-4.8c0-3.45.15-7.5,4.8-7.5H159.8a5,5,0,0,1,4.95,4.8c0,6.3-1.2,7.5-7.5,7.5a4.87,4.87,0,0,0-4.8,4.95v67.8a5,5,0,0,1-4.95,4.95Z" transform="translate(-79.94 -215.13)"/><path class="cls-2" d="M201,279.18V221.43a4.94,4.94,0,0,1,4.8-4.8c3.45,0,8.1-.15,8.1,4.8v58.5c0,14.25-.9,28.2-18.9,28.2-17.69,0-19-13.95-19-28.2v-58.5a5,5,0,0,1,4.95-4.8c3.3,0,8,0,8,4.8v57.75c0,5.7-.6,16.5,6.14,16.5C201.49,295.68,201,284.43,201,279.18Z" transform="translate(-79.94 -215.13)"/><path class="cls-2" d="M246.79,216.63c17.4,0,22.2,10.35,23.55,26,.6,6.3.6,12.75.6,19,0,6.75-.15,13.5-.6,20.25-1,15.9-5.55,24.75-22.95,24.75H233.75a5,5,0,0,1-4.8-4.95V221.43a4.94,4.94,0,0,1,4.8-4.8Zm.9,77.25a8.83,8.83,0,0,0,5.4-1.65c5.55-4.05,4.8-24,4.8-30.6,0-6.9,1.05-27.15-4.8-31.35-1.65-1.2-4.2-1.5-6.15-1.5h-1.65c-3.45,0-3.6,3.45-3.6,4.8v55.35c0,1.65.75,4.95,3,4.95Z" transform="translate(-79.94 -215.13)"/><path class="cls-2" d="M312.49,302.28c0,2.4-2.25,4.35-4.95,4.35H287a4.66,4.66,0,0,1-4.8-4.35V299a4.66,4.66,0,0,1,4.8-4.35h3.89v-66h-3a4.66,4.66,0,0,1-4.8-4.35V221a4.66,4.66,0,0,1,4.8-4.35h19.64c2.7,0,4.95,2,4.95,4.35v3.3c0,2.4-2.25,4.35-4.95,4.35h-3.75v66h3.75c2.7,0,4.95,1.95,4.95,4.35Z" transform="translate(-79.94 -215.13)"/><path class="cls-2" d="M357,218.28c6.9,4.8,8.25,15.75,8.7,23.55q.45,9.9.45,19.8c0,6.6-.15,13.35-.45,19.95C365,296,362,308.13,344.89,308.13c-4.05,0-8.7-.75-12.15-3.15-10.8-7.8-9.6-31.35-9.6-43.35,0-9.6-.15-25.2,3-34a19.4,19.4,0,0,1,6.6-9.3c3.45-2.4,8.1-3.15,12.15-3.15S353.59,215.88,357,218.28Zm-16.5,75.9a5.75,5.75,0,0,0,4.35,1.5,5.41,5.41,0,0,0,4.2-1.5c4.5-4.8,3.6-25.65,3.6-32.55,0-6.6.75-28.35-3.6-32.7a5.61,5.61,0,0,0-4.2-1.5,6,6,0,0,0-4.2,1.5c-4.8,4.65-4.2,25.8-4.2,32.7S335.89,289.68,340.54,294.18Z" transform="translate(-79.94 -215.13)"/><path class="cls-2" d="M417,216.63a4.94,4.94,0,0,1,4.8,4.8v68.25c0,4.05,3.15,4.8,6.3,4.8h5.7a5,5,0,0,1,5,4.95v2.25a5,5,0,0,1-5,4.95h-20.1a4.87,4.87,0,0,1-4.8-4.95V221.43a4.94,4.94,0,0,1,4.8-4.8Z" transform="translate(-79.94 -215.13)"/><path class="cls-2" d="M467,265.53a4.74,4.74,0,0,0-4.8,4.8v19.35a4.74,4.74,0,0,0,4.8,4.8h8.85a5,5,0,0,1,5,4.95v2.25a5,5,0,0,1-5,4.95H454.09a5,5,0,0,1-4.8-4.95V221.43a4.94,4.94,0,0,1,4.8-4.8h21.3a4.94,4.94,0,0,1,4.8,4.8c0,3.45-.15,7.5-4.8,7.5H467a4.87,4.87,0,0,0-4.8,4.95v14.4a4.74,4.74,0,0,0,4.8,4.8c4.65,0,10.05-1.2,10.05,5.1C477,265.68,473.44,265.53,467,265.53Z" transform="translate(-79.94 -215.13)"/><path class="cls-2" d="M528.94,252.33c-.6,1.35-2.55,4-2.55,5.1,0,2.1,3.3,4.95,4.35,7.05,2.1,4,2.7,9.45,2.7,13.95,0,15.3-.6,28.2-19.65,28.2h-15.3a5,5,0,0,1-4.95-4.95V221.43a5,5,0,0,1,4.95-4.8h12c9.9,0,18.9,2.7,20.25,14,.3,3,.45,6.15.45,9.15A32.88,32.88,0,0,1,528.94,252.33ZM517.09,231c-1.2-2.1-4.2-2.25-6.3-2.25h-2.4c-1.95,0-2.4,2.1-2.4,3.45V251a2.44,2.44,0,0,0,2.7,2.7h2.85c7.35,0,7.05-7.65,7.05-13.05C518.59,237.63,518.59,233.73,517.09,231Zm-7.8,34.2c-2.25,0-3.3,1.8-3.3,3.75v23.1c0,1.5.6,2.85,2.7,2.85h2.55c6.15,0,9.15-2.25,9.45-8.55.15-2.55.3-4.95.3-7.5a45,45,0,0,0-.45-6.45c-.6-5.25-2.55-7.2-7.8-7.2Z" transform="translate(-79.94 -215.13)"/><path class="cls-2" d="M563.89,265.53a4.74,4.74,0,0,0-4.8,4.8v19.35a4.74,4.74,0,0,0,4.8,4.8h8.85a5,5,0,0,1,5,4.95v2.25a5,5,0,0,1-5,4.95H551a5,5,0,0,1-4.8-4.95V221.43a4.94,4.94,0,0,1,4.8-4.8h21.3a4.94,4.94,0,0,1,4.8,4.8c0,3.45-.15,7.5-4.8,7.5h-8.4a4.87,4.87,0,0,0-4.8,4.95v14.4a4.74,4.74,0,0,0,4.8,4.8c4.65,0,10.05-1.2,10.05,5.1C573.94,265.68,570.34,265.53,563.89,265.53Z" transform="translate(-79.94 -215.13)"/><path class="cls-2" d="M587.44,301.83l13.35-80.4a5.92,5.92,0,0,1,5.55-4.8c3.75,0,8.25,0,9,4.8l13.35,80.4v.75a3.94,3.94,0,0,1-4.05,4.05c-3.9,0-8.85.3-9.6-4.8l-1.65-11.25a5.61,5.61,0,0,0-5.4-4.8c-3.15,0-6.15,1.35-6.6,4.8l-1.65,11.25a5.77,5.77,0,0,1-5.55,4.8c-3,0-6.75.15-6.75-4.05Zm20.7-49.65c-.15-1.35-1.2-1.8-1.5,0l-2.55,16.35c0,.3-.15.6-.15.9,0,2.1,1.35,3.9,3.45,3.9s3.45-1.8,3.45-3.9c0-.3-.15-.6-.15-.9Z" transform="translate(-79.94 -215.13)"/><path class="cls-2" d="M665.74,279.18V221.43a4.94,4.94,0,0,1,4.8-4.8c3.45,0,8.1-.15,8.1,4.8v58.5c0,14.25-.9,28.2-18.9,28.2-17.7,0-19-13.95-19-28.2v-58.5a5,5,0,0,1,4.95-4.8c3.3,0,8,0,8,4.8v57.75c0,5.7-.6,16.5,6.15,16.5C666.19,295.68,665.74,284.43,665.74,279.18Z" transform="translate(-79.94 -215.13)"/><path class="cls-2" d="M701.74,216.63a4.94,4.94,0,0,1,4.8,4.8v68.25c0,4.05,3.15,4.8,6.3,4.8h5.7a5,5,0,0,1,5,4.95v2.25a5,5,0,0,1-5,4.95h-20.1a4.87,4.87,0,0,1-4.8-4.95V221.43a4.94,4.94,0,0,1,4.8-4.8Z" transform="translate(-79.94 -215.13)"/><path class="cls-2" d="M741,306.63a5,5,0,0,1-4.8-4.95v-67.8c0-4.65-3.75-4.95-7.2-4.95a4.74,4.74,0,0,1-4.8-4.8c0-3.45.15-7.5,4.8-7.5h27.45a5,5,0,0,1,5,4.8c0,6.3-1.2,7.5-7.5,7.5a4.87,4.87,0,0,0-4.8,4.95v67.8a5,5,0,0,1-4.95,4.95Z" transform="translate(-79.94 -215.13)"/></svg>